# Blender v2.80 (sub 74) OBJ File: ''
# www.blender.org
mtllib aaaaaaaaaaa.mtl
o Cube
v 1.000000 0.529412 -1.000000
v 1.000000 0.529412 -1.000000
v 1.000000 0.529412 1.000000
v 1.000000 0.529412 1.000000
v -1.000000 0.529412 -1.000000
v -1.000000 0.529412 -1.000000
v -1.000000 0.529412 1.000000
v -1.000000 0.529412 1.000000
v 1.000000 0.529412 1.000000
v -1.000000 0.529412 1.000000
v 1.000000 0.529412 -1.000000
v -1.000000 0.529412 -1.000000
v 1.000000 0.529412 1.000000
v -1.000000 0.529412 1.000000
v 1.000000 0.529412 -1.000000
v -1.000000 0.529412 -1.000000
v 1.000000 0.529412 1.000000
v 7.000000 0.529412 1.000000
v 5.000000 0.529412 -1.000000
v 7.000000 0.529412 1.000000
v 7.000000 0.529412 1.000000
v 5.000000 0.529412 1.000000
v 7.000000 0.529412 -1.000000
v 7.000000 0.529412 -1.000000
v 5.000000 0.529412 1.000000
v 3.000000 0.529412 1.000000
v 1.000000 0.529412 1.000000
v 3.000000 0.529412 -1.000000
v 5.000000 0.529412 -1.000000
v 3.000000 0.529412 1.000000
v 1.000000 0.529412 1.000000
v 1.000000 0.529412 -1.000000
v 3.000000 0.529412 -1.000000
v 3.000000 0.529412 1.000000
v 5.000000 0.529412 1.000000
v 3.000000 0.529412 1.000000
v 5.000000 0.529412 -1.000000
v 5.000000 0.529412 1.000000
v 3.000000 0.529412 1.000000
v 3.000000 0.529412 -1.000000
v 5.000000 0.529412 -1.000000
v 5.000000 0.529412 1.000000
v 5.000000 0.529412 1.000000
v 7.000000 0.529412 -1.000000
v 5.000000 0.529412 -1.000000
v 7.000000 0.529412 1.000000
v 5.000000 0.529412 1.000000
v 5.000000 0.529412 -1.000000
v 7.000000 0.529412 -1.000000
v 7.000000 0.529412 1.000000
vt 0.875000 0.750000
vt 0.875000 0.750000
vt 0.875000 0.500000
vt 0.875000 0.500000
vt 0.375000 0.250000
vt 0.375000 0.500000
vt 0.625000 0.500000
vt 0.625000 0.250000
vt 0.375000 0.750000
vt 0.625000 0.750000
vt 0.375000 1.000000
vt 0.625000 1.000000
vt 0.625000 0.750000
vt 0.125000 0.500000
vt 0.125000 0.750000
vt 0.375000 0.750000
vt 0.375000 0.500000
vt 0.625000 0.500000
vt 0.375000 0.000000
vt 0.375000 0.250000
vt 0.625000 0.250000
vt 0.625000 0.000000
vt 0.625000 0.500000
vt 0.625000 0.250000
vt 0.625000 0.750000
vt 0.375000 0.750000
vt 0.375000 0.500000
vt 0.875000 0.500000
vt 0.875000 0.750000
vt 0.625000 0.000000
vt 0.625000 0.250000
vt 0.625000 0.500000
vt 0.875000 0.500000
vt 0.875000 0.750000
vt 0.625000 0.750000
vt 0.125000 0.500000
vt 0.375000 0.500000
vt 0.375000 0.750000
vt 0.125000 0.750000
vt 0.375000 0.750000
vt 0.625000 1.000000
vt 0.375000 1.000000
vt 0.375000 0.500000
vt 0.625000 0.500000
vt 0.625000 0.750000
vt 0.375000 0.250000
vt 0.625000 0.250000
vt 0.875000 0.500000
vt 0.875000 0.750000
vt 0.000000 0.000000
vt 0.000000 0.000000
vt 0.000000 0.000000
vt 0.000000 0.000000
vt 0.625000 0.250000
vt 0.625000 0.000000
vt 0.625000 0.000000
vt 0.625000 0.250000
vt 0.875000 0.750000
vt 0.875000 0.750000
vt 0.875000 0.750000
vt 0.875000 0.750000
vt 0.625000 0.250000
vt 0.625000 0.250000
vt 0.000000 0.000000
vt 0.000000 0.000000
vt 0.875000 0.500000
vt 0.875000 0.500000
vt 0.000000 0.000000
vt 0.000000 0.000000
vt 0.000000 0.000000
vt 0.000000 0.000000
vt 0.000000 0.000000
vt 0.625000 0.000000
vt 0.625000 0.250000
vt 0.875000 0.750000
vt 0.625000 0.250000
vt 0.000000 0.000000
vt 0.875000 0.500000
vt 0.375000 0.000000
vt 0.625000 0.000000
vt 0.375000 0.250000
vt 0.625000 0.250000
vt 0.625000 0.500000
vt 0.625000 0.750000
vt 0.375000 0.500000
vt 0.375000 0.750000
vn 0.0000 0.0000 1.0000
vn 0.0000 1.0000 0.0000
vn 0.0000 -1.0000 0.0000
usemtl Material
s off
f 1/1/1 11/2/1 12/3/1 5/4/1
f 4/5/1 8/6/1 7/7/1 3/8/1
f 8/6/1 6/9/1 5/10/1 7/7/1
f 6/9/2 8/11/2 4/12/2 2/13/2
f 2/14/1 4/15/1 3/16/1 1/17/1
f 6/18/1 2/13/1 1/1/1 5/4/1
f 11/19/3 9/20/3 10/21/3 12/22/3
f 7/7/1 10/23/1 9/24/1 3/8/1
f 5/10/1 12/25/1 10/23/1 7/7/1
f 3/16/1 9/26/1 11/27/1 1/17/1
f 12/3/1 16/28/1 15/29/1 11/2/1
f 12/22/1 16/30/1 14/31/1 10/21/1
f 29/32/1 19/33/1 23/34/1 24/35/1
f 24/36/1 23/37/1 21/38/1 20/39/1
f 29/40/3 24/35/3 20/41/3 25/42/3
f 25/43/1 22/44/1 19/45/1 29/40/1
f 20/46/1 21/47/1 22/44/1 25/43/1
f 23/34/1 19/33/1 45/48/1 44/49/1
f 30/50/1 34/51/1 42/52/1 38/53/1
f 31/54/3 32/55/3 40/56/3 39/57/3
f 28/58/1 33/59/1 41/60/1 37/61/1
f 27/62/1 31/54/1 39/57/1 36/63/1
f 26/64/1 30/50/1 38/53/1 35/65/1
f 33/59/1 32/66/1 40/67/1 41/60/1
f 10/21/1 14/31/1 31/54/1 27/62/1
f 11/2/1 15/29/1 33/59/1 28/58/1
f 14/31/3 16/30/3 32/55/3 31/54/3
f 13/68/1 17/69/1 34/51/1 30/50/1
f 15/29/1 16/28/1 32/66/1 33/59/1
f 9/70/1 13/68/1 30/50/1 26/64/1
f 38/53/1 42/52/1 50/71/1 46/72/1
f 39/57/3 40/56/3 48/73/3 47/74/3
f 37/61/1 41/60/1 49/75/1 44/49/1
f 36/63/1 39/57/1 47/74/1 43/76/1
f 35/65/1 38/53/1 46/72/1 18/77/1
f 41/60/1 40/67/1 48/78/1 49/75/1
f 44/79/2 45/80/2 43/76/2 18/81/2
f 22/44/1 21/47/1 18/82/1 43/83/1
f 19/45/1 22/44/1 43/83/1 45/84/1
f 21/38/1 23/37/1 44/85/1 18/86/1
f 45/48/1 44/49/1 49/75/1 48/78/1
f 45/80/1 43/76/1 47/74/1 48/73/1
