# Blender v2.80 (sub 74) OBJ File: ''
# www.blender.org
mtllib clothobj.mtl
o Plane
v -1.000000 0.000000 1.000000
v 1.000000 0.000000 1.000000
v -1.000000 0.000000 -1.000000
v 1.000000 0.000000 -1.000000
v -1.000000 0.000000 -1.000000
v -1.000000 0.000000 1.000000
v 1.000000 0.000000 1.000000
v 1.000000 0.000000 -1.000000
v 1.000000 0.000000 -1.000000
v 1.000000 0.000000 1.000000
v 3.000000 0.000000 1.000000
v 3.000000 0.000000 -1.000000
v 3.000000 0.000000 -1.000000
v 3.000000 0.000000 1.000000
v 5.000000 0.000000 1.000000
v 5.000000 0.000000 -1.000000
v 5.000000 0.000000 -1.000000
v 5.000000 0.000000 1.000000
v 7.000000 0.000000 1.000000
v 7.000000 0.000000 -1.000000
v 7.000000 0.000000 -1.000000
v 7.000000 0.000000 1.000000
v 9.000000 0.000000 1.000000
v 9.000000 0.000000 -1.000000
v 9.000000 0.000000 -1.000000
v 9.000000 0.000000 1.000000
v 11.000000 0.000000 1.000000
v 11.000000 0.000000 -1.000000
v 11.000000 0.000000 -1.000000
v 11.000000 0.000000 1.000000
v 13.000000 0.000000 1.000000
v 13.000000 0.000000 -1.000000
v 13.000000 0.000000 -1.000000
v 13.000000 0.000000 1.000000
v 15.000000 0.000000 1.000000
v 15.000000 0.000000 -1.000000
v -1.000000 0.000000 -3.000000
v -1.000000 0.000000 -1.000000
v 1.000000 0.000000 -3.000000
v 1.000000 0.000000 -1.000000
v 3.000000 0.000000 -3.000000
v 3.000000 0.000000 -1.000000
v 5.000000 0.000000 -3.000000
v 5.000000 0.000000 -1.000000
v 7.000000 0.000000 -3.000000
v 7.000000 0.000000 -1.000000
v 9.000000 0.000000 -3.000000
v 9.000000 0.000000 -1.000000
v 11.000000 0.000000 -3.000000
v 11.000000 0.000000 -1.000000
v 13.000000 0.000000 -1.000000
v 13.000000 0.000000 -3.000000
v 13.000000 0.000000 -3.000000
v 13.000000 0.000000 -1.000000
v 15.000000 0.000000 -1.000000
v 15.000000 0.000000 -3.000000
v -1.000000 0.000000 -5.000000
v -1.000000 0.000000 -3.000000
v 1.000000 0.000000 -5.000000
v 1.000000 0.000000 -3.000000
v 3.000000 0.000000 -5.000000
v 3.000000 0.000000 -3.000000
v 5.000000 0.000000 -5.000000
v 5.000000 0.000000 -3.000000
v 7.000000 0.000000 -5.000000
v 7.000000 0.000000 -3.000000
v 9.000000 0.000000 -5.000000
v 9.000000 0.000000 -3.000000
v 11.000000 0.000000 -5.000000
v 11.000000 0.000000 -3.000000
v 13.000000 0.000000 -3.000000
v 13.000000 0.000000 -5.000000
v 13.000000 0.000000 -5.000000
v 13.000000 0.000000 -3.000000
v 15.000000 0.000000 -3.000000
v 15.000000 0.000000 -5.000000
v -1.000000 0.000000 -7.000000
v -1.000000 0.000000 -5.000000
v 1.000000 0.000000 -7.000000
v 1.000000 0.000000 -5.000000
v 3.000000 0.000000 -7.000000
v 3.000000 0.000000 -5.000000
v 5.000000 0.000000 -7.000000
v 5.000000 0.000000 -5.000000
v 7.000000 0.000000 -7.000000
v 7.000000 0.000000 -5.000000
v 9.000000 0.000000 -7.000000
v 9.000000 0.000000 -5.000000
v 11.000000 0.000000 -7.000000
v 11.000000 0.000000 -5.000000
v 13.000000 0.000000 -5.000000
v 13.000000 0.000000 -7.000000
v 13.000000 0.000000 -7.000000
v 13.000000 0.000000 -5.000000
v 15.000000 0.000000 -5.000000
v 15.000000 0.000000 -7.000000
v -1.000000 0.000000 -9.000000
v -1.000000 0.000000 -7.000000
v 1.000000 0.000000 -9.000000
v 1.000000 0.000000 -7.000000
v 3.000000 0.000000 -9.000000
v 3.000000 0.000000 -7.000000
v 5.000000 0.000000 -9.000000
v 5.000000 0.000000 -7.000000
v 7.000000 0.000000 -9.000000
v 7.000000 0.000000 -7.000000
v 9.000000 0.000000 -9.000000
v 9.000000 0.000000 -7.000000
v 11.000000 0.000000 -9.000000
v 11.000000 0.000000 -7.000000
v 13.000000 0.000000 -7.000000
v 13.000000 0.000000 -9.000000
v 13.000000 0.000000 -9.000000
v 13.000000 0.000000 -7.000000
v 15.000000 0.000000 -7.000000
v 15.000000 0.000000 -9.000000
v -1.000000 0.000000 -11.000000
v -1.000000 0.000000 -9.000000
v 1.000000 0.000000 -11.000000
v 1.000000 0.000000 -9.000000
v 3.000000 0.000000 -11.000000
v 3.000000 0.000000 -9.000000
v 5.000000 0.000000 -11.000000
v 5.000000 0.000000 -9.000000
v 7.000000 0.000000 -11.000000
v 7.000000 0.000000 -9.000000
v 9.000000 0.000000 -11.000000
v 9.000000 0.000000 -9.000000
v 11.000000 0.000000 -11.000000
v 11.000000 0.000000 -9.000000
v 13.000000 0.000000 -9.000000
v 13.000000 0.000000 -11.000000
v 13.000000 0.000000 -11.000000
v 13.000000 0.000000 -9.000000
v 15.000000 0.000000 -9.000000
v 15.000000 0.000000 -11.000000
vt 0.000000 0.000000
vt 0.000000 1.000000
vt 1.000000 1.000000
vt 1.000000 0.000000
vt 0.000000 0.000000
vt 0.000000 0.000000
vt 0.000000 0.000000
vt 0.000000 0.000000
vt 1.000000 1.000000
vt 1.000000 0.000000
vt 0.000000 1.000000
vt 1.000000 1.000000
vt 0.000000 1.000000
vt 0.000000 1.000000
vt 1.000000 1.000000
vt 1.000000 0.000000
vt 1.000000 0.000000
vt 1.000000 1.000000
vt 1.000000 0.000000
vt 0.000000 0.000000
vt 0.000000 0.000000
vt 0.000000 1.000000
vt 0.000000 1.000000
vt 0.000000 0.000000
vt 0.000000 1.000000
vt 0.000000 1.000000
vt 1.000000 1.000000
vt 0.000000 0.000000
vt 0.000000 0.000000
vt 0.000000 0.000000
vt 0.000000 0.000000
vt 1.000000 0.000000
vt 1.000000 0.000000
vt 0.000000 0.000000
vt 0.000000 1.000000
vt 0.000000 1.000000
vt 0.000000 1.000000
vt 0.000000 1.000000
vt 1.000000 1.000000
vt 1.000000 1.000000
vt 1.000000 0.000000
vt 1.000000 0.000000
vt 1.000000 0.000000
vt 1.000000 0.000000
vt 1.000000 1.000000
vt 0.000000 1.000000
vt 0.000000 0.000000
vt 0.000000 0.000000
vt 0.000000 0.000000
vt 0.000000 1.000000
vt 0.000000 0.000000
vt 0.000000 1.000000
vt 0.000000 1.000000
vt 0.000000 1.000000
vt 0.000000 0.000000
vt 0.000000 0.000000
vt 1.000000 1.000000
vt 1.000000 0.000000
vt 1.000000 1.000000
vt 0.000000 0.000000
vt 0.000000 0.000000
vt 0.000000 0.000000
vt 0.000000 0.000000
vt 0.000000 1.000000
vt 0.000000 1.000000
vt 0.000000 1.000000
vt 0.000000 1.000000
vt 0.000000 0.000000
vt 1.000000 1.000000
vt 0.000000 1.000000
vt 0.000000 1.000000
vt 0.000000 1.000000
vt 0.000000 1.000000
vt 0.000000 1.000000
vt 0.000000 0.000000
vt 0.000000 0.000000
vt 0.000000 0.000000
vt 0.000000 1.000000
vt 0.000000 1.000000
vt 0.000000 0.000000
vt 1.000000 0.000000
vt 1.000000 1.000000
vt 1.000000 1.000000
vt 1.000000 0.000000
vt 0.000000 0.000000
vt 0.000000 0.000000
vt 1.000000 0.000000
vt 0.000000 1.000000
vt 0.000000 1.000000
vt 1.000000 1.000000
vt 1.000000 1.000000
vt 1.000000 1.000000
vt 0.000000 0.000000
vt 0.000000 0.000000
vt 0.000000 0.000000
vt 0.000000 0.000000
vt 0.000000 1.000000
vt 0.000000 1.000000
vt 0.000000 1.000000
vt 0.000000 0.000000
vt 0.000000 1.000000
vt 0.000000 1.000000
vt 0.000000 1.000000
vt 0.000000 1.000000
vt 0.000000 1.000000
vt 0.000000 0.000000
vt 0.000000 0.000000
vt 0.000000 0.000000
vt 1.000000 0.000000
vt 0.000000 0.000000
vt 0.000000 0.000000
vt 0.000000 0.000000
vt 0.000000 0.000000
vt 0.000000 1.000000
vt 0.000000 0.000000
vt 0.000000 1.000000
vt 0.000000 1.000000
vt 0.000000 1.000000
vt 0.000000 1.000000
vt 0.000000 0.000000
vt 0.000000 0.000000
vt 0.000000 1.000000
vt 0.000000 1.000000
vt 0.000000 1.000000
vt 0.000000 1.000000
vt 0.000000 1.000000
vt 0.000000 0.000000
vt 0.000000 0.000000
vt 0.000000 0.000000
vt 0.000000 1.000000
vt 1.000000 0.000000
vt 0.000000 0.000000
vt 1.000000 0.000000
vt 1.000000 1.000000
vt 1.000000 1.000000
vt 1.000000 0.000000
vn 0.0000 -1.0000 0.0000
vn 0.0000 1.0000 0.0000
vn 0.0000 0.0000 1.0000
usemtl None
s off
f 1/1/1 3/2/1 4/3/1 2/4/1
f 6/5/2 10/6/2 40/7/2 38/8/2
f 2/4/3 4/3/3 8/9/3 7/10/3
f 3/2/3 1/1/3 6/5/3 5/11/3
f 4/3/3 3/2/3 5/11/3 8/9/3
f 1/1/3 2/4/3 7/10/3 6/5/3
f 12/12/3 9/13/3 13/14/3 16/15/3
f 8/9/3 5/11/3 9/13/3 12/12/3
f 6/5/3 7/10/3 11/16/3 10/6/3
f 7/10/1 8/9/1 12/12/1 11/16/1
f 15/17/1 16/15/1 20/18/1 19/19/1
f 10/6/3 11/16/3 15/17/3 14/20/3
f 11/16/1 12/12/1 16/15/1 15/17/1
f 34/21/3 33/22/3 53/23/3 54/24/3
f 20/18/3 17/25/3 21/26/3 24/27/3
f 30/28/2 34/21/2 54/24/2 50/29/2
f 16/15/3 13/14/3 17/25/3 20/18/3
f 14/20/3 15/17/3 19/19/3 18/30/3
f 22/31/3 23/32/3 27/33/3 26/34/3
f 18/30/3 19/19/3 23/32/3 22/31/3
f 19/19/1 20/18/1 24/27/1 23/32/1
f 29/35/1 25/36/1 47/37/1 49/38/1
f 27/33/1 28/39/1 32/40/1 31/41/1
f 23/32/1 24/27/1 28/39/1 27/33/1
f 35/42/1 31/41/1 51/43/1 55/44/1
f 24/27/3 21/26/3 25/36/3 28/39/3
f 32/40/3 29/35/3 33/22/3 36/45/3
f 25/36/1 21/26/1 45/46/1 47/37/1
f 28/39/3 25/36/3 29/35/3 32/40/3
f 26/34/3 27/33/3 31/41/3 30/28/3
f 34/21/2 35/42/2 36/45/2 33/22/2
f 30/28/3 31/41/3 35/42/3 34/21/3
f 26/34/2 30/28/2 50/29/2 48/47/2
f 18/30/2 22/31/2 46/48/2 44/49/2
f 37/50/3 38/8/3 58/51/3 57/52/3
f 53/23/1 49/38/1 69/53/1 73/54/1
f 46/48/2 48/47/2 68/55/2 66/56/2
f 56/57/3 55/44/3 75/58/3 76/59/3
f 40/7/2 42/60/2 62/61/2 60/62/2
f 54/24/3 53/23/3 73/54/3 74/63/3
f 41/64/1 39/65/1 59/66/1 61/67/1
f 44/49/2 46/48/2 66/56/2 64/68/2
f 13/14/1 9/13/1 39/65/1 41/64/1
f 9/13/1 5/11/1 37/50/1 39/65/1
f 31/41/3 32/40/3 52/69/3 51/43/3
f 36/45/3 35/42/3 55/44/3 56/57/3
f 21/26/1 17/25/1 43/70/1 45/46/1
f 5/11/3 6/5/3 38/8/3 37/50/3
f 14/20/2 18/30/2 44/49/2 42/60/2
f 22/31/2 26/34/2 48/47/2 46/48/2
f 33/22/1 29/35/1 49/38/1 53/23/1
f 10/6/2 14/20/2 42/60/2 40/7/2
f 17/25/1 13/14/1 41/64/1 43/70/1
f 32/40/2 36/45/2 56/57/2 52/69/2
f 65/71/1 63/72/1 83/73/1 85/74/1
f 68/55/2 70/75/2 90/76/2 88/77/2
f 59/66/1 57/52/1 77/78/1 79/79/1
f 70/75/2 74/63/2 94/80/2 90/76/2
f 71/81/3 72/82/3 92/83/3 91/84/3
f 58/51/2 60/62/2 80/85/2 78/86/2
f 75/58/1 71/81/1 91/84/1 95/87/1
f 63/72/1 61/67/1 81/88/1 83/73/1
f 47/37/1 45/46/1 65/71/1 67/89/1
f 42/60/2 44/49/2 64/68/2 62/61/2
f 52/69/2 56/57/2 76/59/2 72/82/2
f 43/70/1 41/64/1 61/67/1 63/72/1
f 55/44/1 51/43/1 71/81/1 75/58/1
f 38/8/2 40/7/2 60/62/2 58/51/2
f 51/43/3 52/69/3 72/82/3 71/81/3
f 50/29/2 54/24/2 74/63/2 70/75/2
f 39/65/1 37/50/1 57/52/1 59/66/1
f 48/47/2 50/29/2 70/75/2 68/55/2
f 45/46/1 43/70/1 63/72/1 65/71/1
f 49/38/1 47/37/1 67/89/1 69/53/1
f 92/83/2 96/90/2 116/91/2 112/92/2
f 82/93/2 84/94/2 104/95/2 102/96/2
f 87/97/1 85/74/1 105/98/1 107/99/1
f 77/78/3 78/86/3 98/100/3 97/101/3
f 93/102/1 89/103/1 109/104/1 113/105/1
f 86/106/2 88/77/2 108/107/2 106/108/2
f 96/90/3 95/87/3 115/109/3 116/91/3
f 80/85/2 82/93/2 102/96/2 100/110/2
f 69/53/1 67/89/1 87/97/1 89/103/1
f 64/68/2 66/56/2 86/106/2 84/94/2
f 61/67/1 59/66/1 79/79/1 81/88/1
f 74/63/3 73/54/3 93/102/3 94/80/3
f 60/62/2 62/61/2 82/93/2 80/85/2
f 76/59/3 75/58/3 95/87/3 96/90/3
f 66/56/2 68/55/2 88/77/2 86/106/2
f 73/54/1 69/53/1 89/103/1 93/102/1
f 57/52/3 58/51/3 78/86/3 77/78/3
f 67/89/1 65/71/1 85/74/1 87/97/1
f 62/61/2 64/68/2 84/94/2 82/93/2
f 72/82/2 76/59/2 96/90/2 92/83/2
f 100/110/2 102/96/2 122/111/2 120/112/2
f 114/113/3 113/105/3 133/114/3 134/115/3
f 101/116/1 99/117/1 119/118/1 121/119/1
f 104/95/2 106/108/2 126/120/2 124/121/2
f 109/104/1 107/99/1 127/122/1 129/123/1
f 105/98/1 103/124/1 123/125/1 125/126/1
f 108/107/2 110/127/2 130/128/2 128/129/2
f 99/117/1 97/101/1 117/130/1 119/118/1
f 83/73/1 81/88/1 101/116/1 103/124/1
f 95/87/1 91/84/1 111/131/1 115/109/1
f 78/86/2 80/85/2 100/110/2 98/100/2
f 91/84/3 92/83/3 112/92/3 111/131/3
f 90/76/2 94/80/2 114/113/2 110/127/2
f 79/79/1 77/78/1 97/101/1 99/117/1
f 88/77/2 90/76/2 110/127/2 108/107/2
f 85/74/1 83/73/1 103/124/1 105/98/1
f 89/103/1 87/97/1 107/99/1 109/104/1
f 84/94/2 86/106/2 106/108/2 104/95/2
f 81/88/1 79/79/1 99/117/1 101/116/1
f 94/80/3 93/102/3 113/105/3 114/113/3
f 117/130/2 118/132/2 120/112/2 119/118/2
f 119/118/2 120/112/2 122/111/2 121/119/2
f 121/119/2 122/111/2 124/121/2 123/125/2
f 123/125/2 124/121/2 126/120/2 125/126/2
f 125/126/2 126/120/2 128/129/2 127/122/2
f 127/122/2 128/129/2 130/128/2 129/123/2
f 131/133/1 132/134/1 136/135/1 135/136/1
f 129/123/2 130/128/2 134/115/2 133/114/2
f 116/91/3 115/109/3 135/136/3 136/135/3
f 106/108/2 108/107/2 128/129/2 126/120/2
f 113/105/1 109/104/1 129/123/1 133/114/1
f 97/101/3 98/100/3 118/132/3 117/130/3
f 107/99/1 105/98/1 125/126/1 127/122/1
f 102/96/2 104/95/2 124/121/2 122/111/2
f 112/92/2 116/91/2 136/135/2 132/134/2
f 103/124/1 101/116/1 121/119/1 123/125/1
f 115/109/1 111/131/1 131/133/1 135/136/1
f 98/100/2 100/110/2 120/112/2 118/132/2
f 111/131/3 112/92/3 132/134/3 131/133/3
f 110/127/2 114/113/2 134/115/2 130/128/2
