# Blender v2.80 (sub 74) OBJ File: ''
# www.blender.org
mtllib eeeeeeeeeee.mtl
o Cube
v 1.000000 0.529417 -1.000000
v 1.000000 0.529397 -1.000000
v 1.000000 0.529417 1.000000
v 1.000000 0.529397 1.000000
v -1.000000 0.529417 -1.000000
v -1.000000 0.529397 -1.000000
v -1.000000 0.529417 1.000000
v -1.000000 0.529397 1.000000
v 1.000000 0.529417 1.000000
v -1.000000 0.529417 1.000000
v 1.000000 0.529417 -1.000000
v -1.000000 0.529417 -1.000000
v 1.000000 0.529417 1.000000
v -1.000000 0.529417 1.000000
v 1.000000 0.529417 -1.000000
v -1.000000 0.529417 -1.000000
v 1.000000 0.529417 1.000000
v 3.000000 0.529417 1.000000
v 3.000000 0.529417 -1.000000
v 5.000000 0.529417 1.000000
v 5.000000 0.529417 -1.000000
v 7.000000 0.529417 1.000000
v 7.000000 0.529417 -1.000000
vt 0.875000 0.750000
vt 0.875000 0.500000
vt 0.875000 0.500000
vt 0.875000 0.750000
vt 0.375000 0.250000
vt 0.625000 0.250000
vt 0.625000 0.500000
vt 0.375000 0.500000
vt 0.625000 0.750000
vt 0.375000 0.750000
vt 0.625000 0.750000
vt 0.625000 1.000000
vt 0.375000 1.000000
vt 0.125000 0.500000
vt 0.375000 0.500000
vt 0.375000 0.750000
vt 0.125000 0.750000
vt 0.625000 0.500000
vt 0.375000 0.000000
vt 0.625000 0.000000
vt 0.625000 0.250000
vt 0.375000 0.250000
vt 0.625000 0.250000
vt 0.625000 0.500000
vt 0.625000 0.750000
vt 0.375000 0.500000
vt 0.375000 0.750000
vt 0.875000 0.750000
vt 0.875000 0.500000
vt 0.625000 0.250000
vt 0.625000 0.000000
vt 0.375000 0.000000
vt 0.375000 0.250000
vt 0.375000 0.000000
vt 0.375000 0.250000
vt 0.375000 0.000000
vt 0.375000 0.250000
vn 0.0000 0.0000 1.0000
vn -1.0000 0.0000 0.0000
vn 0.0000 -1.0000 0.0000
vn 1.0000 0.0000 0.0000
vn 0.0000 0.0000 -1.0000
vn 0.0000 1.0000 0.0000
usemtl Material
s off
f 1/1/1 5/2/1 12/3/1 11/4/1
f 4/5/1 3/6/1 7/7/1 8/8/1
f 8/8/2 7/7/2 5/9/2 6/10/2
f 6/10/3 2/11/3 4/12/3 8/13/3
f 2/14/4 1/15/4 3/16/4 4/17/4
f 6/18/5 5/2/5 1/1/5 2/11/5
f 11/19/6 12/20/6 10/21/6 9/22/6
f 7/7/1 3/6/1 9/23/1 10/24/1
f 5/9/1 7/7/1 10/24/1 12/25/1
f 3/16/1 1/15/1 11/26/1 9/27/1
f 12/3/1 11/4/1 15/28/1 16/29/1
f 12/20/1 10/21/1 14/30/1 16/31/1
f 9/22/3 11/19/3 19/32/3 18/33/3
f 18/33/3 19/32/3 21/34/3 20/35/3
f 20/35/3 21/34/3 23/36/3 22/37/3
l 9 13
l 13 17
