# Blender v2.80 (sub 74) OBJ File: ''
# www.blender.org
mtllib untitled.mtl
o Plane
v -1.000000 0.000000 1.000000
v 1.000000 0.000000 1.000000
v -1.000000 0.000000 -1.000000
v 1.000000 0.000000 -1.000000
v 1.000000 0.000000 1.000000
v 1.000000 0.000000 -1.000000
v 1.000000 0.000000 1.000000
v 1.000000 0.000000 -1.000000
v 3.000000 0.000000 1.000000
v 3.000000 0.000000 -1.000000
v 5.000000 0.000000 1.000000
v 5.000000 0.000000 -1.000000
v 7.000000 0.000000 1.000000
v 7.000000 0.000000 -1.000000
vt 0.000000 0.000000
vt 1.000000 0.000000
vt 1.000000 1.000000
vt 0.000000 1.000000
vt 1.000000 0.000000
vt 1.000000 1.000000
vt 1.000000 0.000000
vt 1.000000 1.000000
vt 1.000000 0.000000
vt 1.000000 1.000000
vt 1.000000 0.000000
vt 1.000000 1.000000
vt 1.000000 0.000000
vt 1.000000 1.000000
vn 0.0000 1.0000 0.0000
vn 0.0000 0.0000 1.0000
usemtl None
s off
f 1/1/1 2/2/1 4/3/1 3/4/1
f 4/3/2 2/2/2 5/5/2 6/6/2
f 6/6/2 5/5/2 7/7/2 8/8/2
f 8/8/1 7/7/1 9/9/1 10/10/1
f 10/10/1 9/9/1 11/11/1 12/12/1
f 12/12/1 11/11/1 13/13/1 14/14/1
